<mxfile host="app.diagrams.net" modified="2021-12-30T07:48:34.013Z" agent="5.0 (Macintosh; Intel Mac OS X 10_15_7) AppleWebKit/537.36 (KHTML, like Gecko) Chrome/96.0.4664.110 Safari/537.36" etag="d-DqLA5epd5ukeOfcnsf" version="16.1.0" type="github">
  <diagram id="HIlNnlB08KAlrrrzr4Il" name="Page-1">
    <mxGraphModel dx="1426" dy="802" grid="1" gridSize="10" guides="1" tooltips="1" connect="1" arrows="1" fold="1" page="1" pageScale="1" pageWidth="850" pageHeight="1100" math="0" shadow="0">
      <root>
        <mxCell id="0" />
        <mxCell id="1" parent="0" />
        <mxCell id="xrLsd49xX5ldS3h7MVQL-1" value="submit fapiao" style="swimlane;startSize=20;horizontal=1;childLayout=treeLayout;horizontalTree=0;resizable=0;containerType=tree;" vertex="1" parent="1">
          <mxGeometry x="280" y="240" width="411" height="550" as="geometry" />
        </mxCell>
        <mxCell id="xrLsd49xX5ldS3h7MVQL-2" value="http request" style="whiteSpace=wrap;html=1;" vertex="1" parent="xrLsd49xX5ldS3h7MVQL-1">
          <mxGeometry x="189" y="40" width="100" height="40" as="geometry" />
        </mxCell>
        <mxCell id="xrLsd49xX5ldS3h7MVQL-3" value="can submit&lt;span style=&quot;white-space: pre&quot;&gt;	&lt;/span&gt;" style="whiteSpace=wrap;html=1;" vertex="1" parent="xrLsd49xX5ldS3h7MVQL-1">
          <mxGeometry x="119" y="130" width="100" height="40" as="geometry" />
        </mxCell>
        <mxCell id="xrLsd49xX5ldS3h7MVQL-4" value="" style="edgeStyle=elbowEdgeStyle;elbow=vertical;html=1;rounded=0;" edge="1" parent="xrLsd49xX5ldS3h7MVQL-1" source="xrLsd49xX5ldS3h7MVQL-2" target="xrLsd49xX5ldS3h7MVQL-3">
          <mxGeometry relative="1" as="geometry" />
        </mxCell>
        <mxCell id="xrLsd49xX5ldS3h7MVQL-5" value="400" style="whiteSpace=wrap;html=1;" vertex="1" parent="xrLsd49xX5ldS3h7MVQL-1">
          <mxGeometry x="259" y="130" width="100" height="40" as="geometry" />
        </mxCell>
        <mxCell id="xrLsd49xX5ldS3h7MVQL-6" value="" style="edgeStyle=elbowEdgeStyle;elbow=vertical;html=1;rounded=0;" edge="1" parent="xrLsd49xX5ldS3h7MVQL-1" source="xrLsd49xX5ldS3h7MVQL-2" target="xrLsd49xX5ldS3h7MVQL-5">
          <mxGeometry relative="1" as="geometry" />
        </mxCell>
        <mxCell id="xrLsd49xX5ldS3h7MVQL-7" value="" style="edgeStyle=elbowEdgeStyle;elbow=vertical;html=1;rounded=0;" edge="1" target="xrLsd49xX5ldS3h7MVQL-8" source="xrLsd49xX5ldS3h7MVQL-3" parent="xrLsd49xX5ldS3h7MVQL-1">
          <mxGeometry relative="1" as="geometry">
            <mxPoint x="211" y="320" as="sourcePoint" />
          </mxGeometry>
        </mxCell>
        <mxCell id="xrLsd49xX5ldS3h7MVQL-8" value="dup check" style="whiteSpace=wrap;html=1;" vertex="1" parent="xrLsd49xX5ldS3h7MVQL-1">
          <mxGeometry x="119" y="220" width="100" height="40" as="geometry" />
        </mxCell>
        <mxCell id="xrLsd49xX5ldS3h7MVQL-9" value="" style="edgeStyle=elbowEdgeStyle;elbow=vertical;html=1;rounded=0;" edge="1" target="xrLsd49xX5ldS3h7MVQL-10" source="xrLsd49xX5ldS3h7MVQL-8" parent="xrLsd49xX5ldS3h7MVQL-1">
          <mxGeometry relative="1" as="geometry">
            <mxPoint x="141" y="410" as="sourcePoint" />
          </mxGeometry>
        </mxCell>
        <mxCell id="xrLsd49xX5ldS3h7MVQL-10" value="409" style="whiteSpace=wrap;html=1;" vertex="1" parent="xrLsd49xX5ldS3h7MVQL-1">
          <mxGeometry x="20" y="310" width="100" height="40" as="geometry" />
        </mxCell>
        <mxCell id="xrLsd49xX5ldS3h7MVQL-11" value="" style="edgeStyle=elbowEdgeStyle;elbow=vertical;html=1;rounded=0;" edge="1" target="xrLsd49xX5ldS3h7MVQL-12" source="xrLsd49xX5ldS3h7MVQL-8" parent="xrLsd49xX5ldS3h7MVQL-1">
          <mxGeometry relative="1" as="geometry">
            <mxPoint x="141" y="500" as="sourcePoint" />
          </mxGeometry>
        </mxCell>
        <mxCell id="xrLsd49xX5ldS3h7MVQL-12" value="same day check" style="whiteSpace=wrap;html=1;" vertex="1" parent="xrLsd49xX5ldS3h7MVQL-1">
          <mxGeometry x="218" y="310" width="100" height="40" as="geometry" />
        </mxCell>
        <mxCell id="xrLsd49xX5ldS3h7MVQL-13" value="" style="edgeStyle=elbowEdgeStyle;elbow=vertical;html=1;rounded=0;" edge="1" target="xrLsd49xX5ldS3h7MVQL-14" source="xrLsd49xX5ldS3h7MVQL-12" parent="xrLsd49xX5ldS3h7MVQL-1">
          <mxGeometry relative="1" as="geometry">
            <mxPoint x="281" y="500" as="sourcePoint" />
          </mxGeometry>
        </mxCell>
        <mxCell id="xrLsd49xX5ldS3h7MVQL-14" value="same day" style="whiteSpace=wrap;html=1;" vertex="1" parent="xrLsd49xX5ldS3h7MVQL-1">
          <mxGeometry x="145.5" y="400" width="100" height="40" as="geometry" />
        </mxCell>
        <mxCell id="xrLsd49xX5ldS3h7MVQL-15" value="" style="edgeStyle=elbowEdgeStyle;elbow=vertical;html=1;rounded=0;" edge="1" target="xrLsd49xX5ldS3h7MVQL-16" source="xrLsd49xX5ldS3h7MVQL-12" parent="xrLsd49xX5ldS3h7MVQL-1">
          <mxGeometry relative="1" as="geometry">
            <mxPoint x="351" y="590" as="sourcePoint" />
          </mxGeometry>
        </mxCell>
        <mxCell id="xrLsd49xX5ldS3h7MVQL-16" value="not same day" style="whiteSpace=wrap;html=1;" vertex="1" parent="xrLsd49xX5ldS3h7MVQL-1">
          <mxGeometry x="290.5" y="400" width="100" height="40" as="geometry" />
        </mxCell>
        <mxCell id="xrLsd49xX5ldS3h7MVQL-17" value="" style="edgeStyle=elbowEdgeStyle;elbow=vertical;html=1;rounded=0;" edge="1" target="xrLsd49xX5ldS3h7MVQL-18" source="xrLsd49xX5ldS3h7MVQL-16" parent="xrLsd49xX5ldS3h7MVQL-1">
          <mxGeometry relative="1" as="geometry">
            <mxPoint x="547" y="590" as="sourcePoint" />
          </mxGeometry>
        </mxCell>
        <mxCell id="xrLsd49xX5ldS3h7MVQL-18" value="mark submitting&amp;amp;enqueue" style="whiteSpace=wrap;html=1;" vertex="1" parent="xrLsd49xX5ldS3h7MVQL-1">
          <mxGeometry x="290.5" y="490" width="100" height="40" as="geometry" />
        </mxCell>
        <mxCell id="xrLsd49xX5ldS3h7MVQL-19" value="" style="edgeStyle=elbowEdgeStyle;elbow=vertical;html=1;rounded=0;" edge="1" target="xrLsd49xX5ldS3h7MVQL-20" source="xrLsd49xX5ldS3h7MVQL-14" parent="xrLsd49xX5ldS3h7MVQL-1">
          <mxGeometry relative="1" as="geometry">
            <mxPoint x="547" y="590" as="sourcePoint" />
          </mxGeometry>
        </mxCell>
        <mxCell id="xrLsd49xX5ldS3h7MVQL-20" value="mark auto submit" style="whiteSpace=wrap;html=1;" vertex="1" parent="xrLsd49xX5ldS3h7MVQL-1">
          <mxGeometry x="145.5" y="490" width="100" height="40" as="geometry" />
        </mxCell>
      </root>
    </mxGraphModel>
  </diagram>
</mxfile>
